<svg xmlns="http://www.w3.org/2000/svg" version="1.1" xmlns:xlink="http://www.w3.org/1999/xlink" width="2000" height="138" viewBox="0 0 2000 138"><svg xml:space="preserve" width="2000" height="138" data-version="2" data-id="lg_CxUN9vtUPCpeg4Dm2J" viewBox="0 0 567 138" x="0" y="0"><rect width="100%" height="100%" fill="transparent"></rect><path fill="#3a3a3a" d="M176.069 95.55q-7.34 0-13.26-3.05-5.92-3.06-9.4-9.12-3.48-6.06-3.48-15.09.1-8.93 3.48-15.08 3.39-6.16 9.4-9.31 6.02-3.15 13.63-3.15 6.86 0 11.94 2.49 5.08 2.49 8.22 6.91 3.15 4.42 4.19 10.34h-8.09q-.75-4.51-3.19-7.24-2.45-2.72-5.88-3.94-3.43-1.23-7.19-1.23-8.93 0-13.82 5.13-4.88 5.12-4.88 14.61 0 9.97 4.79 15.19 4.79 5.21 13.63 5.21 4.14 0 7.66-1.31 3.53-1.32 5.97-4.09 2.44-2.78 3.2-7.19h8.17q-1.03 5.82-4.18 10.34-3.15 4.51-8.37 7.05-5.21 2.53-12.54 2.53"></path><rect width="51.23" height="54.8" x="-25.61" y="-27.4" fill="none" rx="0" ry="0" transform="translate(176.04 68.65)"></rect><path fill="#3a3a3a" d="M231.619 95.93q-10.9 0-16.69-6.25-5.78-6.25-5.78-17.63V41.69h8.18v30.27q0 4.61 1.18 7.76 1.17 3.14 3.15 5.07 1.97 1.93 4.55 2.82 2.59.89 5.41.89 4.23 0 7.47-1.55 3.25-1.55 5.08-5.21 1.83-3.67 1.83-9.78V41.69h8.18v30.36q0 11.57-5.69 17.72-5.68 6.16-16.87 6.16"></path><rect width="45.03" height="54.24" x="-22.52" y="-27.12" fill="none" rx="0" ry="0" transform="translate(232.16 69.31)"></rect><path fill="#3a3a3a" d="M272.699 94.61h-7.8V41.69h7.8Zm-1.13-52.92h14.01q8.83 0 13.58 4.33 4.75 4.32 4.75 12.97 0 7.8-4.89 12.12-4.89 4.33-13.44 4.33h-14.01v-5.92h13.07q5.64 0 8.88-2.64 3.24-2.63 3.24-7.99 0-5.54-3.19-8.13-3.2-2.58-8.93-2.58h-13.07Z"></path><rect width="39.01" height="52.92" x="-19.5" y="-26.46" fill="none" rx="0" ry="0" transform="translate(284.9 68.65)"></rect><path fill="#3a3a3a" d="M333.889 95.55q-7.33 0-13.25-3.05-5.92-3.06-9.4-9.12-3.48-6.06-3.48-15.09.09-8.93 3.48-15.08 3.38-6.16 9.4-9.31 6.01-3.15 13.63-3.15 6.86 0 11.94 2.49 5.07 2.49 8.22 6.91 3.15 4.42 4.18 10.34h-8.08q-.75-4.51-3.2-7.24-2.44-2.72-5.87-3.94-3.43-1.23-7.19-1.23-8.93 0-13.82 5.13-4.89 5.12-4.89 14.61 0 9.97 4.8 15.19 4.79 5.21 13.63 5.21 4.13 0 7.66-1.31 3.52-1.32 5.97-4.09 2.44-2.78 3.19-7.19h8.18q-1.03 5.82-4.18 10.34-3.15 4.51-8.37 7.05-5.22 2.53-12.55 2.53"></path><rect width="51.23" height="54.8" x="-25.61" y="-27.4" fill="none" rx="0" ry="0" transform="translate(333.87 68.65)"></rect><path fill="#3a3a3a" d="m363.779 94.61 17.77-52.92h12.88l18.14 52.92h-8.37l-16.07-49.63-16.07 49.63Zm10.81-15.79.29-6.2h26.32l.37 6.2Z"></path><rect width="48.79" height="52.92" x="-24.39" y="-26.46" fill="none" rx="0" ry="0" transform="translate(388.67 68.65)"></rect><path fill="#3a3a3a" d="M427.889 77.32v-8.93l26.04-26.7h10.15v1.04Zm-7.42 17.29V41.69h7.8v52.92Zm35.72 0-21.06-27.73 5.64-5.54 24.44 32.24v1.03Z"></path><rect width="44.74" height="52.92" x="-22.37" y="-26.46" fill="none" rx="0" ry="0" transform="translate(443.34 68.65)"></rect><path fill="#3a3a3a" d="M472.449 94.61V41.69h36.66v6.77h-28.95v16.07h22.56v6.49h-22.56v17.2h29.89v6.39Z"></path><rect width="37.6" height="52.92" x="-18.8" y="-26.46" fill="none" rx="0" ry="0" transform="translate(491.75 68.65)"></rect><path fill="#3a3a3a" d="M538.999 95.74q-4.32 0-8.37-1.03-4.04-1.04-7.33-3.2t-5.26-5.59q-1.98-3.43-2.07-8.23h7.9q0 .29.18 1.51.19 1.22.99 2.82.8 1.6 2.44 3.1 1.65 1.5 4.61 2.49 2.96.99 7.47.99 3.48 0 5.83-.75 2.35-.76 3.76-1.98 1.41-1.22 2.02-2.54.61-1.31.61-2.35 0-2.91-1.83-4.7-1.83-1.78-4.93-2.86-3.11-1.08-6.82-1.98-3.71-.89-7.38-1.97-3.66-1.08-6.72-2.87-3.05-1.78-4.75-4.65-1.69-2.87-1.5-7.38.28-4.32 3.01-7.43 2.72-3.1 7.47-4.74 4.75-1.65 10.86-1.65 5.54 0 10.2 1.98 4.65 1.97 7.52 5.87 2.86 3.9 2.77 9.92h-7.61q.09-3.29-1.32-5.31-1.41-2.02-3.62-3.15t-4.56-1.55q-2.35-.43-4.23-.43-5.26 0-8.69 1.93-3.43 1.93-3.53 5.41-.09 3 1.79 4.79 1.88 1.79 4.98 2.82 3.1 1.03 6.86 1.88 3.76.85 7.43 1.88 3.66 1.03 6.72 2.77 3.05 1.74 4.79 4.66 1.74 2.91 1.55 7.52-.18 4.41-3 7.52-2.82 3.1-7.52 4.79-4.7 1.69-10.72 1.69"></path><rect width="44.35" height="54.99" x="-22.18" y="-27.5" fill="none" rx="0" ry="0" transform="translate(538.64 68.75)"></rect><path fill="#3a3a3a" d="m106.054 85.4-3.427 3.414-3.414-3.413-3.413 3.413-3.427-3.413-3.413 3.413-3.414-3.413-3.427 3.413-3.413-3.413-3.414 3.413-3.427-3.413-3.413 3.413-3.427-3.413-3.413 3.413-3.414-3.413-3.427 3.413-3.413-3.413-3.414 3.413-3.427-3.413-3.413 3.413-3.427-3.413-3.413 3.413-3.414-3.413-3.427 3.413-3.413-3.413-3.414 3.413-3.427-3.413-3.413 3.413 11.12 46.189h73.47l11.121-46.189zM59.53 23.978c-6.152 0-11.155-5.005-11.155-11.157 0-6.151 5.003-11.157 11.155-11.157 6.154 0 11.154 5.004 11.154 11.157 0 6.152-5 11.157-11.154 11.157"></path><path fill="#3a3a3a" d="M96.481 36.786a23.254 23.254 0 0 0-4.37.425c.002-.142.023-.28.023-.425 0-10.958-8.396-19.945-19.106-20.904-1.403 6.171-6.905 10.804-13.495 10.804-7.643 0-13.862-6.22-13.862-13.865 0-.021.005-.044.005-.065-9.695.204-17.495 8.112-17.495 17.858 0 2.788.654 5.413 1.792 7.764a22.086 22.086 0 0 0-1.792-.09c-12.429 0-22.503 10.075-22.503 22.502s10.074 22.501 22.503 22.501h68.303c12.842 0 23.252-10.41 23.252-23.25-.001-12.844-10.413-23.255-23.255-23.255M20.63 50.388c1.53 0 2.772 1.24 2.772 2.77a2.77 2.77 0 0 1-5.54 0 2.77 2.77 0 0 1 2.768-2.77m4.338 19.645a2.15 2.15 0 0 1-3.034.265l-4.62-3.878a2.156 2.156 0 0 1 2.774-3.302L24.703 67a2.147 2.147 0 0 1 .265 3.033m12.465 2.694a2.768 2.768 0 1 1 2.77-2.766 2.767 2.767 0 0 1-2.77 2.766m7.44-16.021-5.358 2.77a2.156 2.156 0 1 1-1.98-3.829l5.357-2.77a2.15 2.15 0 0 1 2.903.923 2.152 2.152 0 0 1-.923 2.906m2.134-15.549a2.768 2.768 0 1 1 .003-5.536 2.768 2.768 0 0 1-.003 5.536m12.027 26.772a2.77 2.77 0 1 1 .004-5.538 2.77 2.77 0 0 1-.004 5.538m19.698 2.519-4.428 4.093a2.155 2.155 0 1 1-2.923-3.164l4.429-4.095a2.15 2.15 0 0 1 3.042.119 2.157 2.157 0 0 1-.12 3.047m-.496-26.522a2.772 2.772 0 0 1-2.77-2.769 2.77 2.77 0 1 1 2.77 2.77m16.892 12.162-5.047-3.297a2.155 2.155 0 1 1 2.355-3.608l5.048 3.299a2.154 2.154 0 1 1-2.356 3.606M99.84 70.33a2.77 2.77 0 0 1 0-5.54 2.77 2.77 0 0 1 0 5.54"></path></svg></svg>